<svg width="48" height="34" viewBox="0 0 48 34" fill="none" xmlns="http://www.w3.org/2000/svg">
<path d="M0.722656 8V0.890625H2.82227C3.45052 0.890625 4.00716 1.0306 4.49219 1.31055C4.98047 1.59049 5.35807 1.98763 5.625 2.50195C5.89193 3.01628 6.02539 3.60547 6.02539 4.26953V4.62598C6.02539 5.2998 5.8903 5.89225 5.62012 6.40332C5.35319 6.91439 4.9707 7.30827 4.47266 7.58496C3.97786 7.86165 3.40983 8 2.76855 8H0.722656ZM1.95801 1.88672V7.01367H2.76367C3.41146 7.01367 3.90788 6.81185 4.25293 6.4082C4.60124 6.0013 4.77865 5.41862 4.78516 4.66016V4.26465C4.78516 3.49316 4.61751 2.90397 4.28223 2.49707C3.94694 2.09017 3.46029 1.88672 2.82227 1.88672H1.95801ZM13.482 6.24219L14.5758 0.890625H15.8014L14.1607 8H12.9791L11.6266 2.80957L10.2447 8H9.0582L7.41758 0.890625H8.64316L9.74668 6.23242L11.1041 0.890625H12.1393L13.482 6.24219ZM18.6584 8H17.4279V0.890625H18.6584V8ZM20.827 8V0.890625H22.9266C23.5548 0.890625 24.1115 1.0306 24.5965 1.31055C25.0848 1.59049 25.4624 1.98763 25.7293 2.50195C25.9962 3.01628 26.1297 3.60547 26.1297 4.26953V4.62598C26.1297 5.2998 25.9946 5.89225 25.7244 6.40332C25.4575 6.91439 25.075 7.30827 24.577 7.58496C24.0822 7.86165 23.5141 8 22.8729 8H20.827ZM22.0623 1.88672V7.01367H22.868C23.5158 7.01367 24.0122 6.81185 24.3572 6.4082C24.7055 6.0013 24.8829 5.41862 24.8895 4.66016V4.26465C24.8895 3.49316 24.7218 2.90397 24.3865 2.49707C24.0512 2.09017 23.5646 1.88672 22.9266 1.88672H22.0623ZM31.8822 6.34473H29.1283L28.5521 8H27.268L29.9535 0.890625H31.0619L33.7523 8H32.4633L31.8822 6.34473ZM29.475 5.34863H31.5355L30.5053 2.39941L29.475 5.34863ZM38.9287 6.16895C38.9287 5.85645 38.818 5.61556 38.5967 5.44629C38.3786 5.27702 37.9831 5.10612 37.4102 4.93359C36.8372 4.76107 36.3815 4.56901 36.043 4.35742C35.3952 3.95052 35.0713 3.41992 35.0713 2.76562C35.0713 2.19271 35.304 1.7207 35.7695 1.34961C36.2383 0.978516 36.8454 0.792969 37.5908 0.792969C38.0856 0.792969 38.5267 0.884115 38.9141 1.06641C39.3014 1.2487 39.6058 1.50911 39.8271 1.84766C40.0485 2.18294 40.1592 2.55566 40.1592 2.96582H38.9287C38.9287 2.59473 38.8115 2.30501 38.5771 2.09668C38.346 1.88509 38.014 1.7793 37.5811 1.7793C37.1774 1.7793 36.8633 1.86556 36.6387 2.03809C36.4173 2.21061 36.3066 2.4515 36.3066 2.76074C36.3066 3.02116 36.4271 3.23926 36.668 3.41504C36.9089 3.58757 37.306 3.75684 37.8594 3.92285C38.4128 4.08561 38.8571 4.27279 39.1924 4.48438C39.5277 4.69271 39.7734 4.93359 39.9297 5.20703C40.0859 5.47721 40.1641 5.7946 40.1641 6.15918C40.1641 6.75163 39.9362 7.22363 39.4805 7.5752C39.028 7.9235 38.4128 8.09766 37.6348 8.09766C37.1204 8.09766 36.6468 8.00326 36.2139 7.81445C35.7842 7.6224 35.4489 7.35872 35.208 7.02344C34.9704 6.68815 34.8516 6.29753 34.8516 5.85156H36.0869C36.0869 6.25521 36.2204 6.56771 36.4873 6.78906C36.7542 7.01042 37.1367 7.12109 37.6348 7.12109C38.0645 7.12109 38.3867 7.03483 38.6016 6.8623C38.8197 6.68652 38.9287 6.4554 38.9287 6.16895ZM45.8775 6.34473H43.1236L42.5475 8H41.2633L43.9488 0.890625H45.0572L47.7477 8H46.4586L45.8775 6.34473ZM43.4703 5.34863H45.5309L44.5006 2.39941L43.4703 5.34863Z" fill="black" fill-opacity="0.6"/>
<path d="M4.43848 18.1689C4.43848 17.8564 4.3278 17.6156 4.10645 17.4463C3.88835 17.277 3.49284 17.1061 2.91992 16.9336C2.34701 16.7611 1.89128 16.569 1.55273 16.3574C0.904948 15.9505 0.581055 15.4199 0.581055 14.7656C0.581055 14.1927 0.813802 13.7207 1.2793 13.3496C1.74805 12.9785 2.35514 12.793 3.10059 12.793C3.59538 12.793 4.03646 12.8841 4.42383 13.0664C4.8112 13.2487 5.11556 13.5091 5.33691 13.8477C5.55827 14.1829 5.66895 14.5557 5.66895 14.9658H4.43848C4.43848 14.5947 4.32129 14.305 4.08691 14.0967C3.85579 13.8851 3.52376 13.7793 3.09082 13.7793C2.68717 13.7793 2.37305 13.8656 2.14844 14.0381C1.92708 14.2106 1.81641 14.4515 1.81641 14.7607C1.81641 15.0212 1.93685 15.2393 2.17773 15.415C2.41862 15.5876 2.81576 15.7568 3.36914 15.9229C3.92253 16.0856 4.36686 16.2728 4.70215 16.4844C5.03743 16.6927 5.2832 16.9336 5.43945 17.207C5.5957 17.4772 5.67383 17.7946 5.67383 18.1592C5.67383 18.7516 5.44596 19.2236 4.99023 19.5752C4.53776 19.9235 3.92253 20.0977 3.14453 20.0977C2.63021 20.0977 2.15658 20.0033 1.72363 19.8145C1.29395 19.6224 0.958659 19.3587 0.717773 19.0234C0.480143 18.6882 0.361328 18.2975 0.361328 17.8516H1.59668C1.59668 18.2552 1.73014 18.5677 1.99707 18.7891C2.264 19.0104 2.64648 19.1211 3.14453 19.1211C3.57422 19.1211 3.89648 19.0348 4.11133 18.8623C4.32943 18.6865 4.43848 18.4554 4.43848 18.1689ZM10.8873 18.3447H8.1334L7.55723 20H6.27305L8.95859 12.8906H10.067L12.7574 20H11.4684L10.8873 18.3447ZM8.48008 17.3486H10.5406L9.51035 14.3994L8.48008 17.3486ZM15.3195 12.8906L17.3703 18.3398L19.4162 12.8906H21.0129V20H19.7824V17.6562L19.9045 14.5215L17.8049 20H16.9211L14.8264 14.5264L14.9484 17.6562V20H13.718V12.8906H15.3195ZM26.3436 18.1689C26.3436 17.8564 26.2329 17.6156 26.0115 17.4463C25.7934 17.277 25.3979 17.1061 24.825 16.9336C24.2521 16.7611 23.7964 16.569 23.4578 16.3574C22.81 15.9505 22.4861 15.4199 22.4861 14.7656C22.4861 14.1927 22.7189 13.7207 23.1844 13.3496C23.6531 12.9785 24.2602 12.793 25.0057 12.793C25.5005 12.793 25.9415 12.8841 26.3289 13.0664C26.7163 13.2487 27.0206 13.5091 27.242 13.8477C27.4633 14.1829 27.574 14.5557 27.574 14.9658H26.3436C26.3436 14.5947 26.2264 14.305 25.992 14.0967C25.7609 13.8851 25.4288 13.7793 24.9959 13.7793C24.5923 13.7793 24.2781 13.8656 24.0535 14.0381C23.8322 14.2106 23.7215 14.4515 23.7215 14.7607C23.7215 15.0212 23.8419 15.2393 24.0828 15.415C24.3237 15.5876 24.7208 15.7568 25.2742 15.9229C25.8276 16.0856 26.2719 16.2728 26.6072 16.4844C26.9425 16.6927 27.1883 16.9336 27.3445 17.207C27.5008 17.4772 27.5789 17.7946 27.5789 18.1592C27.5789 18.7516 27.351 19.2236 26.8953 19.5752C26.4428 19.9235 25.8276 20.0977 25.0496 20.0977C24.5353 20.0977 24.0617 20.0033 23.6287 19.8145C23.199 19.6224 22.8637 19.3587 22.6229 19.0234C22.3852 18.6882 22.2664 18.2975 22.2664 17.8516H23.5018C23.5018 18.2552 23.6352 18.5677 23.9021 18.7891C24.1691 19.0104 24.5516 19.1211 25.0496 19.1211C25.4793 19.1211 25.8016 19.0348 26.0164 18.8623C26.2345 18.6865 26.3436 18.4554 26.3436 18.1689ZM32.7924 18.3447H30.0385L29.4623 20H28.1781L30.8637 12.8906H31.9721L34.6625 20H33.3734L32.7924 18.3447ZM30.3852 17.3486H32.4457L31.4154 14.3994L30.3852 17.3486ZM38.2354 17.2607H36.8584V20H35.623V12.8906H38.123C38.9434 12.8906 39.5765 13.0745 40.0225 13.4424C40.4684 13.8102 40.6914 14.3424 40.6914 15.0391C40.6914 15.5143 40.5758 15.9131 40.3447 16.2354C40.1169 16.5544 39.7979 16.8001 39.3877 16.9727L40.9844 19.9365V20H39.6611L38.2354 17.2607ZM36.8584 16.2695H38.1279C38.5446 16.2695 38.8701 16.1654 39.1045 15.957C39.3389 15.7454 39.4561 15.4574 39.4561 15.0928C39.4561 14.7119 39.347 14.4173 39.1289 14.209C38.9141 14.0007 38.5918 13.8932 38.1621 13.8867H36.8584V16.2695ZM45.9928 18.3447H43.2389L42.6627 20H41.3785L44.0641 12.8906H45.1725L47.8629 20H46.5738L45.9928 18.3447ZM43.5855 17.3486H45.6461L44.6158 14.3994L43.5855 17.3486Z" fill="#263238" fill-opacity="0.8"/>
<path d="M2.02637 33H0.795898V25.8906H2.02637V33ZM8.68457 33H7.44922L4.28027 27.9561V33H3.04492V25.8906H4.28027L7.45898 30.9541V25.8906H8.68457V33ZM9.64453 33V25.8906H11.7441C12.3724 25.8906 12.929 26.0306 13.4141 26.3105C13.9023 26.5905 14.2799 26.9876 14.5469 27.502C14.8138 28.0163 14.9473 28.6055 14.9473 29.2695V29.626C14.9473 30.2998 14.8122 30.8923 14.542 31.4033C14.2751 31.9144 13.8926 32.3083 13.3945 32.585C12.8997 32.8617 12.3317 33 11.6904 33H9.64453ZM10.8799 26.8867V32.0137H11.6855C12.3333 32.0137 12.8298 31.8118 13.1748 31.4082C13.5231 31.0013 13.7005 30.4186 13.707 29.6602V29.2646C13.707 28.4932 13.5394 27.904 13.2041 27.4971C12.8688 27.0902 12.3822 26.8867 11.7441 26.8867H10.8799ZM21.3516 29.6309C21.3516 30.3275 21.2311 30.9395 20.9902 31.4668C20.7493 31.9909 20.4043 32.3945 19.9551 32.6777C19.5091 32.9577 18.9948 33.0977 18.4121 33.0977C17.8359 33.0977 17.3216 32.9577 16.8691 32.6777C16.4199 32.3945 16.0716 31.9925 15.8242 31.4717C15.5801 30.9508 15.4564 30.3503 15.4531 29.6699V29.2695C15.4531 28.5762 15.5752 27.9642 15.8193 27.4336C16.0667 26.903 16.4134 26.4977 16.8594 26.2178C17.3086 25.9346 17.8229 25.793 18.4023 25.793C18.9818 25.793 19.4945 25.9329 19.9404 26.2129C20.3896 26.4896 20.7363 26.89 20.9805 27.4141C21.2246 27.9349 21.3483 28.542 21.3516 29.2354V29.6309ZM20.1162 29.2598C20.1162 28.472 19.9665 27.8682 19.667 27.4482C19.3708 27.0283 18.9492 26.8184 18.4023 26.8184C17.8685 26.8184 17.4502 27.0283 17.1475 27.4482C16.848 27.8649 16.695 28.4557 16.6885 29.2207V29.6309C16.6885 30.4121 16.8398 31.016 17.1426 31.4424C17.4486 31.8688 17.8717 32.082 18.4121 32.082C18.959 32.082 19.3789 31.8737 19.6719 31.457C19.9681 31.0404 20.1162 30.4316 20.1162 29.6309V29.2598ZM27.7217 33H26.4863L23.3174 27.9561V33H22.082V25.8906H23.3174L26.4961 30.9541V25.8906H27.7217V33ZM32.8369 29.8262H29.917V32.0137H33.3301V33H28.6816V25.8906H33.2959V26.8867H29.917V28.8496H32.8369V29.8262ZM37.5518 31.1689C37.5518 30.8564 37.4411 30.6156 37.2197 30.4463C37.0016 30.277 36.6061 30.1061 36.0332 29.9336C35.4603 29.7611 35.0046 29.569 34.666 29.3574C34.0182 28.9505 33.6943 28.4199 33.6943 27.7656C33.6943 27.1927 33.9271 26.7207 34.3926 26.3496C34.8613 25.9785 35.4684 25.793 36.2139 25.793C36.7087 25.793 37.1497 25.8841 37.5371 26.0664C37.9245 26.2487 38.2288 26.5091 38.4502 26.8477C38.6715 27.1829 38.7822 27.5557 38.7822 27.9658H37.5518C37.5518 27.5947 37.4346 27.305 37.2002 27.0967C36.9691 26.8851 36.637 26.7793 36.2041 26.7793C35.8005 26.7793 35.4863 26.8656 35.2617 27.0381C35.0404 27.2106 34.9297 27.4515 34.9297 27.7607C34.9297 28.0212 35.0501 28.2393 35.291 28.415C35.5319 28.5876 35.929 28.7568 36.4824 28.9229C37.0358 29.0856 37.4801 29.2728 37.8154 29.4844C38.1507 29.6927 38.3965 29.9336 38.5527 30.207C38.709 30.4772 38.7871 30.7946 38.7871 31.1592C38.7871 31.7516 38.5592 32.2236 38.1035 32.5752C37.651 32.9235 37.0358 33.0977 36.2578 33.0977C35.7435 33.0977 35.2699 33.0033 34.8369 32.8145C34.4072 32.6224 34.0719 32.3587 33.8311 32.0234C33.5934 31.6882 33.4746 31.2975 33.4746 30.8516H34.71C34.71 31.2552 34.8434 31.5677 35.1104 31.7891C35.3773 32.0104 35.7598 32.1211 36.2578 32.1211C36.6875 32.1211 37.0098 32.0348 37.2246 31.8623C37.4427 31.6865 37.5518 31.4554 37.5518 31.1689ZM40.6748 33H39.4443V25.8906H40.6748V33ZM45.7607 31.3447H43.0068L42.4307 33H41.1465L43.832 25.8906H44.9404L47.6309 33H46.3418L45.7607 31.3447ZM43.3535 30.3486H45.4141L44.3838 27.3994L43.3535 30.3486Z" fill="#263238"/>
</svg>
